<svg width="165" height="165" viewBox="0 0 165 165" fill="none" xmlns="http://www.w3.org/2000/svg">
<rect width="165" height="165" rx="82.5" transform="matrix(-1 0 0 1 165 0)" fill="white"/>
<path d="M73.6847 19.4939L73.6847 61.9985L43.6146 31.9416L31.4488 44.0992L61.5188 74.1489L19 74.1489L19 91.345L61.5261 91.345L31.456 121.395L43.6219 133.552L73.6847 103.503L73.6847 146L90.8924 146L90.8924 103.495L120.962 133.552L133.128 121.395L103.051 91.345L145.592 91.345L145.592 74.1489L103.058 74.1489L133.136 44.0992L120.97 31.9416L90.8924 61.9985L90.8924 19.4939L73.6847 19.4939Z" fill="black"/>
</svg>
